<?xml version="1.0" encoding="UTF-8"?>
<svg width="264px" height="36px" viewBox="0 0 264 36" version="1.1" xmlns="http://www.w3.org/2000/svg" xmlns:xlink="http://www.w3.org/1999/xlink">
    <!-- Generator: Sketch 49.2 (51160) - http://www.bohemiancoding.com/sketch -->
    <title>logo-negative</title>
    <desc>Created with Sketch.</desc>
    <defs></defs>
    <g id="Page-1" stroke="none" stroke-width="1" fill="none" fill-rule="evenodd">
        <g id="logo-negative" fill="#FFFFFF" fill-rule="nonzero">
            <polygon id="Shape" points="0.4 1.2 3.7 1.2 3.7 28.8 0.4 28.8"></polygon>
            <polygon id="Shape" points="20 10.7 17.9 6.7 17.7 6.7 18.1 10.7 18.1 28.8 15 28.8 15 0.8 16.7 0.8 29.9 19.2 31.9 23 32.1 23 31.7 19.2 31.7 1.2 34.8 1.2 34.8 29.2 33.1 29.2"></polygon>
            <polygon id="Shape" points="62.4 4.1 53.8 4.1 53.8 28.8 50.5 28.8 50.5 4.1 41.9 4.1 41.9 1.2 62.4 1.2"></polygon>
            <polygon id="Shape" points="70.4 1.2 85.4 1.2 85.4 4.1 73.7 4.1 73.7 13.1 84.5 13.1 84.5 16 73.7 16 73.7 25.8 85.7 25.8 85.7 28.7 70.5 28.7"></polygon>
            <path d="M95.4,1.4 C96.4,1.2 97.5,1.1 98.9,1 C100.2,0.9 101.4,0.8 102.5,0.8 C103.7,0.8 104.8,0.9 106,1.2 C107,1.4 108,1.9 108.9,2.5 C109.7,3.1 110.4,3.9 110.9,4.9 C112.2,7.8 111.8,11.2 109.9,13.7 C108.7,15 107.1,16 105.4,16.4 L107.3,17.9 L114.2,28.8 L110.4,28.8 L102.8,16.9 L98.9,16.3 L98.9,28.8 L95.6,28.8 L95.4,1.4 Z M102.5,3.7 L101.4,3.7 C101,3.7 100.7,3.7 100.3,3.7 L99.3,3.8 C99.1,3.8 98.8,3.9 98.6,3.9 L98.6,14.1 L101.7,14.1 C103.3,14.2 104.9,13.7 106.2,12.8 C107.4,11.8 108.1,10.2 108,8.6 C108,7.3 107.5,6 106.5,5.1 C105.4,4.1 104,3.6 102.5,3.7 Z" id="Shape"></path>
            <polygon id="Shape" points="128.1 20.1 129.1 24.3 129.1 24.3 130.1 20 136.8 1.1 140.1 1.1 129.6 29.1 128.1 29.1 117.5 1.1 121.1 1.1"></polygon>
            <polygon id="Shape" points="148 1.2 151.3 1.2 151.3 28.8 148 28.8"></polygon>
            <polygon id="Shape" points="162.7 1.2 177.7 1.2 177.7 4.1 166 4.1 166 13.1 176.8 13.1 176.8 16 166 16 166 25.8 177.9 25.8 177.9 28.7 162.7 28.7"></polygon>
            <polygon id="Shape" points="193.2 19.6 193.8 24.2 193.8 24.2 194.5 19.5 200.2 1.1 201.8 1.1 207.5 19.6 208.2 24.2 208.2 24.2 208.9 19.5 213.6 1.1 216.8 1.1 209.1 29.1 207.3 29.1 201.7 10.6 201 6.4 200.8 6.4 200.1 10.6 194.5 29.1 192.7 29.1 184.8 1.1 188.3 1.1"></polygon>
            <path d="M225.1,1.2 L237.2,1.2 L237.2,2.7 C236.7,3 236.3,3.2 235.8,3.4 C235.3,3.6 234.8,3.7 234.2,3.8 L234.2,24 C234.3,25.8 233.9,27.6 233.2,29.3 C232.7,30.5 231.9,31.6 230.9,32.6 C230.1,33.3 229.2,33.9 228.2,34.4 C227.5,34.7 226.7,35 226,35.2 L225.2,34.2 C225.6,33.8 226,33.4 226.3,33 C226.7,32.4 227.1,31.8 227.3,31.1 C227.6,30.2 227.8,29.3 228,28.3 C228.2,27 228.3,25.6 228.3,24.3 L228.3,3.9 C227.7,3.8 227.1,3.6 226.6,3.4 C226.1,3.2 225.6,3 225.1,2.7 L225.1,1.2 Z" id="Shape"></path>
            <path d="M248.5,25.5 C248.9,25.8 249.3,26.1 249.7,26.3 C250.4,26.6 251.1,26.7 251.8,26.7 C253.1,26.7 254.4,26.4 255.4,25.6 C256.4,24.9 256.9,23.7 256.9,22.5 C256.9,21.6 256.6,20.7 256,20.1 C255.3,19.4 254.5,18.8 253.7,18.3 C252.8,17.7 251.8,17.2 250.7,16.7 C249.6,16.2 248.6,15.5 247.7,14.8 C246.8,14.1 246,13.2 245.4,12.2 C244.7,11.1 244.4,9.7 244.5,8.4 C244.5,7.2 244.7,6.1 245.2,5.1 C245.7,4.2 246.4,3.4 247.2,2.8 C248.1,2.2 249.1,1.7 250.1,1.4 C251.3,1.1 252.5,0.9 253.8,0.9 C255.3,0.9 256.8,1 258.3,1.2 C259.6,1.4 260.8,1.7 262,2.2 C262,2.7 262,3.3 261.9,4 C261.8,4.7 261.7,5.4 261.6,6 C261.5,6.6 261.4,7.3 261.3,7.9 C261.2,8.5 261.1,9 261,9.4 L259.4,9.4 L257.6,4 C257.2,3.8 256.7,3.7 256.2,3.6 C255.6,3.5 254.9,3.4 254.3,3.4 C253.3,3.4 252.3,3.7 251.5,4.3 C250.7,4.9 250.3,5.8 250.3,6.8 C250.3,7.7 250.6,8.6 251.3,9.3 C252,10 252.8,10.7 253.7,11.2 C254.6,11.8 255.7,12.4 256.8,12.9 C257.9,13.5 258.9,14.1 259.9,14.9 C260.8,15.6 261.6,16.5 262.3,17.5 C263,18.6 263.3,19.9 263.3,21.2 C263.4,23.5 262.4,25.8 260.6,27.3 C258.8,28.7 256.2,29.5 252.8,29.5 C252,29.5 251.1,29.4 250.3,29.3 C249.5,29.2 248.7,29.1 247.9,28.9 C247.2,28.7 246.6,28.5 245.9,28.3 C245.4,28.2 245,27.9 244.6,27.6 C244.6,26.9 244.7,26.3 244.8,25.6 C244.9,24.9 245,24.2 245.1,23.5 C245.2,22.8 245.3,22.1 245.5,21.5 C245.6,20.9 245.8,20.3 245.9,19.8 L247.3,19.8 L248.5,25.5 Z" id="Shape"></path>
        </g>
    </g>
</svg>