<svg width="323" height="66" xmlns="http://www.w3.org/2000/svg"><g fill="#FFF" fill-rule="nonzero"><path d="M.4 31.8h3.3v27.6H.4zM20 41.3l-2.1-4h-.2l.4 4v18.1H15v-28h1.7l13.2 18.4 2 3.8h.2l-.4-3.8v-18h3.1v28h-1.7zM62.4 34.7h-8.6v24.7h-3.3V34.7h-8.6v-2.9h20.5v2.9zM70.4 31.8h15v2.9H73.7v9h10.8v2.9H73.7v9.8h12v2.9H70.5zM95.4 32c1-.2 2.1-.3 3.5-.4 1.3-.1 2.5-.2 3.6-.2 1.2 0 2.3.1 3.5.4 1 .2 2 .7 2.9 1.3.8.6 1.5 1.4 2 2.4 1.3 2.9.9 6.3-1 8.8-1.2 1.3-2.8 2.3-4.5 2.7l1.9 1.5 6.9 10.9h-3.8l-7.6-11.9-3.9-.6v12.5h-3.3L95.4 32zm7.1 2.3h-2.2l-1 .1c-.2 0-.5.1-.7.1v10.2h3.1c1.6.1 3.2-.4 4.5-1.3 1.2-1 1.9-2.6 1.8-4.2 0-1.3-.5-2.6-1.5-3.5-1.1-1-2.5-1.5-4-1.4zM128.1 50.7l1 4.2 1-4.3 6.7-18.9h3.3l-10.5 28h-1.5l-10.6-28h3.6zM148 31.8h3.3v27.6H148zM162.7 31.8h15v2.9H166v9h10.8v2.9H166v9.8h11.9v2.9h-15.2zM193.2 50.2l.6 4.6.7-4.7 5.7-18.4h1.6l5.7 18.5.7 4.6.7-4.7 4.7-18.4h3.2l-7.7 28h-1.8l-5.6-18.5-.7-4.2h-.2l-.7 4.2-5.6 18.5h-1.8l-7.9-28h3.5zM225.1 31.8h12.1v1.5c-.5.3-.9.5-1.4.7-.5.2-1 .3-1.6.4v20.2c.1 1.8-.3 3.6-1 5.3-.5 1.2-1.3 2.3-2.3 3.3-.8.7-1.7 1.3-2.7 1.8-.7.3-1.5.6-2.2.8l-.8-1c.4-.4.8-.8 1.1-1.2.4-.6.8-1.2 1-1.9.3-.9.5-1.8.7-2.8.2-1.3.3-2.7.3-4V34.5c-.6-.1-1.2-.3-1.7-.5s-1-.4-1.5-.7v-1.5zM248.5 56.1c.4.3.8.6 1.2.8.7.3 1.4.4 2.1.4 1.3 0 2.6-.3 3.6-1.1 1-.7 1.5-1.9 1.5-3.1 0-.9-.3-1.8-.9-2.4-.7-.7-1.5-1.3-2.3-1.8-.9-.6-1.9-1.1-3-1.6s-2.1-1.2-3-1.9c-.9-.7-1.7-1.6-2.3-2.6-.7-1.1-1-2.5-.9-3.8 0-1.2.2-2.3.7-3.3.5-.9 1.2-1.7 2-2.3.9-.6 1.9-1.1 2.9-1.4 1.2-.3 2.4-.5 3.7-.5 1.5 0 3 .1 4.5.3 1.3.2 2.5.5 3.7 1 0 .5 0 1.1-.1 1.8s-.2 1.4-.3 2c-.1.6-.2 1.3-.3 1.9-.1.6-.2 1.1-.3 1.5h-1.6l-1.8-5.4c-.4-.2-.9-.3-1.4-.4-.6-.1-1.3-.2-1.9-.2-1 0-2 .3-2.8.9-.8.6-1.2 1.5-1.2 2.5 0 .9.3 1.8 1 2.5s1.5 1.4 2.4 1.9c.9.6 2 1.2 3.1 1.7 1.1.6 2.1 1.2 3.1 2 .9.7 1.7 1.6 2.4 2.6.7 1.1 1 2.4 1 3.7.1 2.3-.9 4.6-2.7 6.1-1.8 1.4-4.4 2.2-7.8 2.2-.8 0-1.7-.1-2.5-.2s-1.6-.2-2.4-.4c-.7-.2-1.3-.4-2-.6-.5-.1-.9-.4-1.3-.7 0-.7.1-1.3.2-2l.3-2.1c.1-.7.2-1.4.4-2 .1-.6.3-1.2.4-1.7h1.4l1.2 5.7z"/><g transform="translate(271)"><path d="M25 13.2c-.8 0-1.5.6-1.4 1.4 0 .8.6 1.4 1.4 1.4.8 0 1.4-.6 1.4-1.4.1-.8-.6-1.4-1.4-1.4zM40.8 11.4c-1.8 0-3.2 1.4-3.2 3.2 0 1.7 1.4 3.2 3.2 3.2 1.7 0 3.2-1.4 3.2-3.2 0-1.7-1.4-3.2-3.2-3.2z"/><circle cx="32" cy="14.6" r="2.3"/><path d="M33.1 34.6c-.3.9-.9 1.8-1.7 2.4-1.2 1-2.7 1.6-4.5 1.6h-7.8c-.2 0-.5.1-.6.2L11 43.5v-3.7c0-.6-.5-1.2-1.2-1.2-1 0-2.3-.2-3.4-.6-1-.3-1.9-.8-2.4-1.3s-.9-1.1-1.2-1.8c-.2-.6-.4-1.3-.4-2.1V21.6c0-1.6.7-3.1 1.9-4.1 1.2-1.1 2.8-1.7 4.6-1.7h4.8v-2.2H8.9c-2.4 0-4.6.9-6.2 2.4C1.1 17.4.1 19.5.1 21.8V33c0 1 .2 2 .6 2.9.4.9 1 1.8 1.7 2.5.8.8 2 1.4 3.3 1.9 1 .3 2 .6 3 .7v4.7c0 .6.5 1.2 1.2 1.2.3 0 .5-.1.7-.2l9-5.6h7.5c2.3 0 4.4-.9 6-2.2 1.6-1.3 2.6-3.2 2.8-5.4l-2.2-1.3c-.2.8-.3 1.7-.6 2.4z"/><path d="M7.6 21.8c0 .6.5 1.2 1.2 1.2h5.3c-.2-.8-.4-1.6-.4-2.3H8.8c-.7 0-1.2.5-1.2 1.1zM7.6 32.5c0 .6.5 1.2 1.2 1.2H27c.6 0 1.2-.5 1.2-1.2 0-.6-.5-1.2-1.2-1.2H8.8c-.6 0-1.2.6-1.2 1.2zM15.4 26H8.8c-.6 0-1.2.5-1.2 1.2 0 .6.5 1.2 1.2 1.2h9.1c-1-.8-1.8-1.5-2.5-2.4zM49 3.2C47.3 1.7 45.1.8 42.8.8H24.6c-2.4 0-4.6.9-6.2 2.4-1.6 1.4-2.6 3.5-2.6 5.8v11.2c0 1.2.3 2.3.8 3.4.1.2.2.4.2.5.4.7 1 1.4 1.6 1.9 1.5 1.3 3.6 2.3 6.1 2.3H32l9 5.6c.2.2.5.2.7.2.6 0 1.2-.5 1.2-1.2v-4.7c1-.1 2.1-.3 3.1-.7 1.3-.5 2.5-1.1 3.3-1.9.8-.8 1.3-1.6 1.7-2.5.3-.9.6-1.9.6-3V9c0-2.2-.9-4.3-2.6-5.8zm.2 17c0 .8-.1 1.4-.4 2.1-.3.6-.7 1.3-1.2 1.8s-1.4 1-2.4 1.3c-1.1.4-2.4.6-3.4.6-.6 0-1.2.5-1.2 1.2v3.7l-7.5-4.7c-.2-.1-.4-.2-.6-.2h-8.2c-1.6-.1-3.1-.7-4.3-1.7-1.2-1-1.9-2.5-1.9-4.1V9c0-1.6.7-3.1 1.9-4.1 1.3-1.2 3-1.7 4.7-1.7h18.1c1.8 0 3.4.6 4.6 1.7 1.2 1 1.9 2.5 1.9 4.1v11.2h-.1z"/></g></g></svg>